<svg id="レイヤー_1" data-name="レイヤー 1" xmlns="http://www.w3.org/2000/svg" viewBox="0 0 1682 611.64"><defs><style>.cls-1{fill:#ea580c;}.cls-2{fill:#0d0d0d;}</style></defs><polygon class="cls-1" points="958 332.82 958 314.82 1255 17.82 1255 35.82 958 332.82"/><polygon class="cls-1" points="571 251.82 571 233.82 679 125.82 679 143.82 571 251.82"/><polygon class="cls-1" points="1534 440.82 1534 422.82 1633 323.82 1633 341.82 1534 440.82"/><polygon class="cls-1" points="166 152.82 166 134.82 211 89.82 211 107.82 166 152.82"/><polygon class="cls-1" points="265 557.82 247 557.82 364 440.82 364 458.82 265 557.82"/><polygon class="cls-1" points="697 593.82 679 593.82 841 431.82 841 449.82 697 593.82"/><polygon class="cls-2" points="1435 404.82 1435 233.82 1327 341.82 1327 359.82 1363 323.82 1363 476.82 1435 404.82"/><polygon class="cls-2" points="229 251.82 175 197.82 139 233.82 139 179.82 157 161.82 157 143.82 67 233.82 67 485.82 49 503.82 49 521.82 139 431.82 139 323.82 175 287.82 175 485.82 247 413.82 247 323.82 283 287.82 283 503.82 355 431.82 355 269.82 283 197.82 229 251.82"/><polygon class="cls-2" points="841 413.82 841 332.82 877 296.82 877 413.82 949 341.82 949 269.82 877 197.82 841 233.82 841 143.82 877 107.82 877 89.82 769 197.82 769 377.82 688 458.82 382 458.82 373 467.82 787 467.82 841 413.82"/><polygon class="cls-2" points="1345 197.82 1309 233.82 1309 143.82 1237 215.82 1237 431.82 1147 521.82 1165 521.82 1309 377.82 1309 323.82 1345 287.82 1345 197.82"/><polygon class="cls-2" points="1435 143.82 1363 215.82 1363 269.82 1435 197.82 1435 143.82"/><polygon class="cls-2" points="445 323.82 481 287.82 481 359.82 391 449.82 481 449.82 553 377.82 553 269.82 481 197.82 445 233.82 445 125.82 373 197.82 373 449.82 445 377.82 445 323.82"/><path class="cls-2" d="M1561,143.82l-36,36v-36l-72,72v288l-36,36v18l108-108v-72h36l72-72v-90Zm0,144-36,36v-54l36-36Z"/><polygon class="cls-2" points="661 431.82 679 413.82 679 449.82 751 377.82 751 197.82 679 269.82 679 323.82 643 359.82 643 287.82 733 197.82 643 197.82 571 269.82 571 449.82 643 449.82 661 431.82"/><polygon class="cls-2" points="1138 170.82 751 557.82 769 557.82 805 521.82 895 521.82 1138 278.82 1138 170.82"/><polygon class="cls-2" points="1147 503.82 1219 431.82 1219 89.82 1147 161.82 1147 359.82 1075 359.82 913 521.82 931 521.82 1021 431.82 1147 431.82 1147 503.82"/></svg>