<svg id="レイヤー_1" data-name="レイヤー 1" xmlns="http://www.w3.org/2000/svg" viewBox="0 0 598 598"><defs><style>.cls-1{fill:#0d0d0d;}.cls-2{fill:#ea580c;}</style></defs><polygon class="cls-1" points="206.23 190.77 31 366 31 407.23 113.46 489.69 175.31 489.69 216.54 448.46 216.54 427.85 175.31 386.62 288.69 273.23 206.23 190.77"/><polygon class="cls-1" points="391.77 190.77 567 366 567 407.23 484.54 489.69 422.69 489.69 381.46 448.46 381.46 427.85 422.69 386.62 309.31 273.23 391.77 190.77"/><polygon class="cls-1" points="381.46 180.46 309.31 108.31 288.69 108.31 216.54 180.46 299 262.92 381.46 180.46"/><polygon class="cls-2" points="319.62 304.15 278.38 304.15 237.15 345.38 299 407.23 360.85 345.38 319.62 304.15"/></svg>