<?xml version="1.0" encoding="utf-8"?>
<!-- Generator: Adobe Illustrator 26.0.2, SVG Export Plug-In . SVG Version: 6.00 Build 0)  -->
<svg version="1.1" id="Layer_1" xmlns="http://www.w3.org/2000/svg" xmlns:xlink="http://www.w3.org/1999/xlink" x="0px" y="0px"
	 viewBox="0 0 72 72" style="enable-background:new 0 0 72 72;" xml:space="preserve">
<style type="text/css">
	.st0{fill:#F1F1F1;}
	.st1{fill:#EA580C;}
</style>
<path d="M58.5,0h-45C6,0,0,6,0,13.5v45C0,66,6,72,13.5,72h45C66,72,72,66,72,58.5v-45C72,6,66,0,58.5,0z"/>
<g>
	<polygon class="st0" points="26.7,25.1 9,42.8 9,46.9 17.3,55.2 23.5,55.2 27.7,51.1 27.7,49 23.5,44.8 35,33.4 	"/>
	<polygon class="st0" points="45.3,25.1 63,42.8 63,46.9 54.7,55.2 48.5,55.2 44.3,51.1 44.3,49 48.5,44.8 37,33.4 	"/>
	<polygon class="st0" points="44.3,24.1 37,16.8 35,16.8 27.7,24.1 36,32.4 	"/>
	<polygon class="st1" points="38.1,36.5 33.9,36.5 29.8,40.7 36,46.9 42.2,40.7 	"/>
</g>
</svg>
